<?xml version="1.0" standalone="no"?>
<!DOCTYPE svg PUBLIC "-//W3C//DTD SVG 20010904//EN"
 "http://www.w3.org/TR/2001/REC-SVG-20010904/DTD/svg10.dtd">
<svg version="1.0" xmlns="http://www.w3.org/2000/svg"
 width="260.000000pt" height="260.000000pt" viewBox="0 0 260.000000 260.000000"
 preserveAspectRatio="xMidYMid meet">
<metadata>
Created by potrace 1.11, written by Peter Selinger 2001-2013
</metadata>
<g transform="translate(0.000000,260.000000) scale(0.100000,-0.100000)"
fill="#000000" stroke="none">
<path d="M675 1948 c-27 -15 -35 -28 -35 -58 0 -20 32 -57 138 -161 212 -209
792 -789 942 -943 74 -76 143 -142 154 -148 41 -22 86 30 73 85 -4 12 -69 83
-147 157 -200 192 -762 754 -910 911 -108 114 -171 170 -190 169 -3 0 -14 -6
-25 -12z"/>
<path d="M1249 1943 c-25 -28 -28 -47 -14 -79 8 -16 148 -165 312 -332 287
-292 299 -303 337 -304 47 -2 76 28 76 77 0 30 -28 60 -316 341 -266 260 -321
309 -348 312 -21 2 -37 -3 -47 -15z"/>
<path d="M1865 1948 c-27 -15 -35 -28 -35 -58 0 -20 68 -93 319 -344 301 -300
321 -318 348 -312 15 4 34 14 41 23 33 45 24 56 -300 380 -172 171 -322 314
-333 317 -11 3 -29 0 -40 -6z"/>
<path d="M1047 1742 c-10 -10 -17 -34 -17 -53 0 -31 24 -58 313 -347 293 -293
314 -312 348 -312 45 0 69 25 69 71 0 32 -22 57 -314 347 -290 287 -317 312
-349 312 -20 0 -41 -7 -50 -18z"/>
<path d="M456 1734 c-38 -38 -23 -63 128 -209 408 -395 498 -480 507 -483 24
-9 59 10 65 34 6 23 -12 45 -167 205 -96 98 -237 244 -314 324 -123 128 -143
145 -171 145 -18 0 -40 -7 -48 -16z"/>
<path d="M1646 1734 c-33 -32 -40 -23 198 -269 69 -71 190 -196 268 -277 134
-139 144 -148 180 -148 40 0 58 19 58 61 0 17 -85 109 -312 336 -280 280 -316
313 -345 313 -17 0 -39 -7 -47 -16z"/>
<path d="M879 1562 c-31 -10 -49 -36 -49 -72 0 -36 13 -50 316 -346 335 -327
346 -335 394 -296 18 14 23 28 22 58 -1 37 -16 53 -308 345 -304 304 -329 325
-375 311z"/>
<path d="M260 1540 c-46 -46 -41 -53 292 -387 280 -280 316 -313 345 -313 36
0 63 22 63 51 0 20 -593 639 -632 660 -26 14 -46 11 -68 -11z"/>
<path d="M1465 1548 c-11 -6 -21 -11 -21 -12 -1 -1 -5 -11 -9 -24 -6 -20 16
-47 167 -203 471 -488 451 -469 485 -469 39 0 63 23 63 58 0 21 -29 56 -138
163 -315 312 -509 499 -518 499 -5 0 -18 -6 -29 -12z"/>
<path d="M673 1360 c-27 -11 -43 -40 -43 -78 0 -26 42 -71 316 -338 294 -287
319 -309 352 -309 43 0 78 39 68 77 -9 34 -615 646 -646 651 -14 3 -35 1 -47
-3z"/>
<path d="M60 1340 c-45 -45 -39 -53 283 -377 166 -167 314 -311 329 -319 51
-27 100 18 84 78 -3 13 -144 161 -314 331 -329 327 -336 333 -382 287z"/>
</g>
</svg>
